<svg width="62" height="26" viewBox="0 0 62 26" fill="none" xmlns="http://www.w3.org/2000/svg">
<rect x="0.5" y="0.5" width="61" height="25" rx="5.5" fill="#F49C14" stroke="#FFE275"/>
<path d="M24.416 17.288H24.224C23.04 17.288 22.72 16.84 22.72 15.752V10.68H20.88V10.984C20.192 10.744 19.472 10.616 18.816 10.616C16.544 10.616 14.64 12.344 14.64 14.552C14.64 16.744 16.544 18.472 18.816 18.472C19.68 18.472 20.624 18.232 21.376 17.864C21.872 18.632 22.752 19 24.08 19H24.416C24.656 19 24.736 18.664 24.736 18.136C24.736 17.608 24.656 17.288 24.416 17.288ZM18.816 16.744C17.504 16.744 16.48 15.768 16.48 14.552C16.48 13.304 17.52 12.328 18.816 12.328C19.52 12.328 20.256 12.536 20.88 12.872V15.768C20.88 15.912 20.88 16.04 20.896 16.168C20.208 16.552 19.504 16.744 18.816 16.744ZM30.6779 17.288H29.3019C28.9019 17.288 28.5659 17.208 28.2939 17.048C28.3899 16.68 28.4379 16.248 28.4379 15.768V11.224H26.5979V15.752C26.5979 16.84 26.2779 17.288 25.0939 17.288H24.4219C24.1819 17.288 24.1019 17.608 24.1019 18.136C24.1019 18.664 24.1819 19 24.4219 19H25.2379C26.2779 19 27.0459 18.776 27.5579 18.312C28.1339 18.76 28.8859 19 29.7979 19H30.6779C30.9179 19 30.9979 18.664 30.9979 18.136C30.9979 17.608 30.9179 17.288 30.6779 17.288ZM26.2619 20.232C25.7179 20.232 25.2859 20.648 25.2859 21.24C25.2859 21.816 25.7179 22.248 26.2619 22.248C26.8219 22.248 27.2379 21.816 27.2379 21.24C27.2379 20.648 26.8219 20.232 26.2619 20.232ZM28.7899 20.232C28.2459 20.232 27.8139 20.648 27.8139 21.24C27.8139 21.816 28.2459 22.248 28.7899 22.248C29.3499 22.248 29.7659 21.816 29.7659 21.24C29.7659 20.648 29.3499 20.232 28.7899 20.232ZM36.9279 17.288H35.5519C35.1519 17.288 34.8159 17.208 34.5439 17.048C34.6399 16.68 34.6879 16.248 34.6879 15.768V11.224H32.8479V15.752C32.8479 16.84 32.5279 17.288 31.3439 17.288H30.6719C30.4319 17.288 30.3519 17.608 30.3519 18.136C30.3519 18.664 30.4319 19 30.6719 19H31.4879C32.5279 19 33.2959 18.776 33.8079 18.312C34.3839 18.76 35.1359 19 36.0479 19H36.9279C37.1679 19 37.2479 18.664 37.2479 18.136C37.2479 17.608 37.1679 17.288 36.9279 17.288ZM33.6159 20.28C33.0079 20.28 32.5439 20.744 32.5439 21.384C32.5439 22.024 33.0079 22.504 33.6159 22.504C34.2239 22.504 34.6879 22.024 34.6879 21.384C34.6879 20.744 34.2239 20.28 33.6159 20.28ZM40.0259 10.12C40.6339 10.12 41.0979 9.64 41.0979 9C41.0979 8.36 40.6339 7.896 40.0259 7.896C39.4179 7.896 38.9539 8.36 38.9539 9C38.9539 9.64 39.4179 10.12 40.0259 10.12ZM43.1779 17.288H41.8019C41.4019 17.288 41.0659 17.208 40.7939 17.048C40.8899 16.68 40.9379 16.248 40.9379 15.768V11.224H39.0979V15.752C39.0979 16.84 38.7779 17.288 37.5939 17.288H36.9219C36.6819 17.288 36.6019 17.608 36.6019 18.136C36.6019 18.664 36.6819 19 36.9219 19H37.7379C38.7779 19 39.5459 18.776 40.0579 18.312C40.6339 18.76 41.3859 19 42.2979 19H43.1779C43.4179 19 43.4979 18.664 43.4979 18.136C43.4979 17.608 43.4179 17.288 43.1779 17.288ZM44.5319 10.104C45.0919 10.104 45.5079 9.672 45.5079 9.096C45.5079 8.504 45.0919 8.088 44.5319 8.088C43.9879 8.088 43.5559 8.504 43.5559 9.096C43.5559 9.672 43.9879 10.104 44.5319 10.104ZM47.0599 8.088C46.5159 8.088 46.0839 8.504 46.0839 9.096C46.0839 9.672 46.5159 10.104 47.0599 10.104C47.6199 10.104 48.0359 9.672 48.0359 9.096C48.0359 8.504 47.6199 8.088 47.0599 8.088ZM44.8679 17.288H43.1719C42.9319 17.288 42.8519 17.608 42.8519 18.136C42.8519 18.664 42.9319 19 43.1719 19H46.7079V11.224H44.8679V17.288Z" fill="#FFE275"/>
</svg>
